<svg width="102" height="32" viewBox="0 0 102 32" fill="none" xmlns="http://www.w3.org/2000/svg">
<path d="M31.687 11.8477V28.8571C31.687 30.5923 30.2793 32 28.5405 32H11.5238C9.79232 32 8.38821 30.5995 8.38093 28.868L8.35547 23.2952H11.1673L11.1892 27.7804C11.1892 28.5588 11.8257 29.1881 12.6042 29.1881H27.4638C28.2459 29.1881 28.8788 28.5552 28.8788 27.7731V12.9281C28.8788 12.146 28.2459 11.513 27.4638 11.513H20.4905V8.70117H28.5441C30.2829 8.70117 31.6907 10.1089 31.6907 11.8441L31.687 11.8477Z" fill="url(#paint0_linear_230_38450)"/>
<path d="M23.2988 3.14288V8.70113H20.487V4.22325C20.487 3.44116 19.854 2.80823 19.0719 2.80823H4.22689C3.44481 2.80823 2.81186 3.44116 2.81186 4.22325V19.0683C2.81186 19.8504 3.44481 20.4833 4.22689 20.4833H11.2147V23.2952H3.14653C1.40775 23.2952 0 21.8874 0 20.1487V3.14288C0 1.40411 1.40775 0 3.14653 0H20.1523C21.8874 0 23.2952 1.40775 23.2952 3.14288H23.2988Z" fill="url(#paint1_linear_230_38450)"/>
<path d="M15.0164 13.2339L19.0141 17.1261C21.324 19.3778 19.7307 23.2991 16.5042 23.2991H11.2188V20.4873H15.9767C16.8752 20.4873 17.319 19.396 16.6752 18.7703L12.6774 14.8781C10.3639 12.6264 11.9608 8.70508 15.1874 8.70508H20.491V11.5169H15.7148C14.8163 11.5169 14.3726 12.6082 15.0164 13.2339Z" fill="url(#paint2_linear_230_38450)"/>
<path d="M58.9514 11.6768L54.368 17.0168V20.3415H53.2658V17.0168L48.6934 11.6768H50.192L53.8733 16.0346L57.5691 11.6768H58.9514Z" fill="#213053"/>
<path d="M47.1586 17.9041C47.1586 18.2606 47.1041 18.5916 46.9949 18.8899C46.8895 19.1809 46.733 19.4392 46.5221 19.6502C46.3147 19.8612 46.0455 20.0321 45.7254 20.1522C45.398 20.2759 45.0052 20.3377 44.5578 20.3377H37.9373V19.2355H44.5578C45.0488 19.2355 45.4417 19.1009 45.7181 18.839C45.9982 18.5735 46.1438 18.217 46.1438 17.7877C46.1438 17.3185 45.9982 16.9547 45.7109 16.711C45.4344 16.4746 45.0452 16.3545 44.5578 16.3545H40.3491C39.9526 16.3545 39.5888 16.2927 39.2723 16.1763C38.9558 16.0599 38.6903 15.8926 38.4757 15.6888C38.2647 15.4851 38.0974 15.2341 37.981 14.9504C37.8646 14.663 37.8027 14.3429 37.8027 13.9974C37.8027 13.6518 37.8573 13.3426 37.9701 13.0589C38.0792 12.7788 38.2392 12.5387 38.4502 12.3386C38.6648 12.1349 38.934 11.9749 39.2541 11.8548C39.5779 11.7348 39.9562 11.6766 40.3782 11.6766H46.7076V12.7788H40.3782C39.9416 12.7788 39.5961 12.9024 39.3451 13.1462C39.0941 13.3899 38.9668 13.7282 38.9668 14.1501C38.9668 14.5721 39.0977 14.9104 39.3523 15.1505C39.607 15.3869 39.9453 15.507 40.3636 15.507H44.5614C45.4271 15.507 46.0855 15.707 46.5184 16.0963C46.944 16.4818 47.1623 17.0893 47.1623 17.9041H47.1586Z" fill="#213053"/>
<path d="M69.4433 11.6001V19.7447C69.4433 19.9847 69.3924 20.1666 69.2833 20.2867C69.1851 20.3994 69.0614 20.454 68.8977 20.454C68.7049 20.454 68.523 20.3667 68.3448 20.1884L61.477 13.2806V20.3412H60.4512V12.2694C60.4512 12.0329 60.5057 11.8583 60.6112 11.731C60.7094 11.6146 60.8404 11.5601 61.0186 11.5601C61.1023 11.5601 61.1787 11.5782 61.2551 11.611C61.3351 11.651 61.4261 11.7165 61.5243 11.8147L68.4175 18.6534V11.6001H69.4433Z" fill="#213053"/>
<path d="M79.0104 11.6768V12.7753H75.5329V20.3415H74.4307V12.7753H70.9531V11.6768H79.0104Z" fill="#213053"/>
<path d="M89.6307 20.3414H88.2885L86.9134 18.0352H81.6207L82.0864 17.2349H86.4442L83.9597 13.0698L79.6601 20.3414H78.416L83.4614 11.9422C83.5341 11.8149 83.6214 11.713 83.7196 11.6403C83.8033 11.5821 83.9015 11.5493 84.0252 11.5493C84.1489 11.5493 84.2434 11.5784 84.3198 11.6366C84.4144 11.7094 84.5017 11.8112 84.5781 11.9458L89.6307 20.3414Z" fill="#213053"/>
<path d="M101.894 20.3415H100.374L96.4271 16.4966L92.5204 20.3415H91.1562L95.816 15.8236L91.5127 11.6768H93.0005L96.5908 15.1652L100.134 11.6768H101.494L97.191 15.8236L101.894 20.3415Z" fill="#213053"/>
<defs>
<linearGradient id="paint0_linear_230_38450" x1="44.9934" y1="-6.38396" x2="9.44673" y2="40.5702" gradientUnits="userSpaceOnUse">
<stop offset="0.11" stop-color="#006AFF"/>
<stop offset="1" stop-color="#00E9A6"/>
</linearGradient>
<linearGradient id="paint1_linear_230_38450" x1="1.60782" y1="22.895" x2="16.3692" y2="-2.67364" gradientUnits="userSpaceOnUse">
<stop offset="0.11" stop-color="#006AFF"/>
<stop offset="1" stop-color="#00E9A6"/>
</linearGradient>
<linearGradient id="paint2_linear_230_38450" x1="5.4095" y1="21.7131" x2="40.476" y2="2.51751" gradientUnits="userSpaceOnUse">
<stop offset="0.11" stop-color="#006AFF"/>
<stop offset="1" stop-color="#00E9A6"/>
</linearGradient>
</defs>
</svg>
